<?xml version="1.0" encoding="UTF-8"?><svg id="Layer_1" xmlns="http://www.w3.org/2000/svg" width="805.56" height="284.64" xmlns:xlink="http://www.w3.org/1999/xlink" viewBox="0 0 805.56 284.64"><defs><style>.cls-1{fill:#fff;}.cls-2{filter:url(#drop-shadow-3);}.cls-2,.cls-3,.cls-4{fill:#eb4446;}.cls-3{filter:url(#drop-shadow-2);}.cls-4{filter:url(#drop-shadow-1);}</style><filter id="drop-shadow-1" filterUnits="userSpaceOnUse"><feOffset dx="7" dy="7"/><feGaussianBlur result="blur" stdDeviation="5"/><feFlood flood-color="#231f20" flood-opacity=".75"/><feComposite in2="blur" operator="in"/><feComposite in="SourceGraphic"/></filter><filter id="drop-shadow-2" filterUnits="userSpaceOnUse"><feOffset dx="7" dy="7"/><feGaussianBlur result="blur-2" stdDeviation="5"/><feFlood flood-color="#231f20" flood-opacity=".75"/><feComposite in2="blur-2" operator="in"/><feComposite in="SourceGraphic"/></filter><filter id="drop-shadow-3" filterUnits="userSpaceOnUse"><feOffset dx="7" dy="7"/><feGaussianBlur result="blur-3" stdDeviation="5"/><feFlood flood-color="#231f20" flood-opacity=".75"/><feComposite in2="blur-3" operator="in"/><feComposite in="SourceGraphic"/></filter></defs><g><path class="cls-4" d="M288.62,8.19c2.6-.15,5.68-.01,9.06,.75,5.34,1.21,8.09,5.26,7.14,10.5-.32,1.79-.83,3.55-1.68,5.17-3.01,5.76-6.51,11.2-11.18,15.84-6.07,6.01-13.6,9.17-22.1,10.3-2.94,.39-5.89,.45-8.86,.45-47.38-.03-94.76-.04-142.13-.04-29.14,0-58.29,.04-87.43,.06-.78,0-1.56,0-2.34,0-2.46-.04-4.38-1.07-5.58-3.14-4.61-7.98-9.17-15.98-13.74-23.98-.6-1.06-1.02-2.21-1.32-3.38-1.68-6.68,1.94-11.6,9.02-12.16,3.18-.25,6.38-.41,9.57-.42,42.62-.03,85.25-.02,127.87,.83,91.03,.12,128.02-.12,131.44-.56,.11-.01,1.03-.14,2.27-.21Z"/><path class="cls-3" d="M30.56,59.1c.89-.32,1.67-.19,2.43-.19,20.96-.02,41.93-.03,62.89-.04,.47,0,.94,0,1.4,0,2.64,.04,3.05,.4,2.93,2.88-.11,2.35,.58,4.48,1.74,6.49,1.82,3.17,3.71,6.3,5.54,9.47,2.53,4.38,6.02,7.9,10.39,10.55,4.69,2.84,9.34,5.75,14.81,7.07,3.58,.86,7.22,1.16,10.88,1.17,31.17,0,62.34-.02,93.51-.02,2.57,0,5.14,.07,7.67,.59,4.51,.92,7.47,3.62,8.09,7.45,.33,2.08-.14,4.07-.9,5.99-2.11,5.34-5.65,9.68-9.91,13.57-7.82,7.14-17.17,10.54-27.78,10.65-12.86,.14-25.71,.06-38.57,.06-27.98,0-55.95,0-83.93,0-4.52,0-9.04-.03-13.56,.07-2.58,.06-4.27-.91-5.28-3.26-1.16-2.73-2.78-5.23-4.32-7.78-9.04-15.01-17.92-30.1-26.58-45.32-3.24-5.69-6.53-11.35-10.09-16.86-.49-.76-1.1-1.46-1.37-2.55Z"/><path class="cls-2" d="M80.52,142.1c.85-.34,1.78-.17,2.69-.17,19.71-.01,39.42,0,59.13,0,1.64,0,3.27-.07,4.91-.01,1.84,.06,2.34,.46,2.24,2.14-.19,3.4,.94,6.41,2.62,9.27,2.16,3.67,4.11,7.47,6.83,10.82,6.54,8.06,14.97,13.11,25.39,14.85,2.9,.49,5.89,.48,8.84,.65,1.26,.07,2.47,.33,3.65,.71,5.49,1.75,7.92,6.21,6.32,11.62-1.06,3.59-2.88,6.85-4.78,10.06-5.86,9.89-11.73,19.78-17.59,29.67-4.19,7.08-8.38,14.15-12.51,21.26-1.66,2.86-3.81,5.34-6.09,7.72-2.08,2.17-4.78,1.95-7.42,1.47-2.03-.37-3.74-1.41-5.13-2.95-2.58-2.85-4.79-5.96-6.73-9.25-15.8-26.84-31.58-53.68-47.38-80.51-3.67-6.23-7.4-12.43-11.03-18.69-1.3-2.23-2.4-4.58-3.55-6.89-.26-.52-.7-1.03-.41-1.77Z"/></g><g><path class="cls-1" d="M453.6,171.9v37.38h-122.22V62.28h119.49v37.38h-70.77v17.22h62.16v35.7h-62.16v19.32h73.5Z"/><path class="cls-1" d="M535.71,172.32h-13.44v36.96h-49.56V62.28h70.77c40.95,0,66.99,21.42,66.99,55.44,0,21.21-10.08,37.17-27.72,46.2l30.87,45.36h-52.92l-24.99-36.96Zm4.62-71.82h-18.06v34.44h18.06c13.65,0,20.16-6.51,20.16-17.22s-6.51-17.22-20.16-17.22Z"/><path class="cls-1" d="M760.41,209.28l-.42-66.99-31.92,53.76h-21.84l-31.92-51.45v64.68h-45.15V62.28h40.74l47.88,78.33,46.62-78.33h40.74l.42,147h-45.15Z"/></g></svg>